<?xml version="1.0" encoding="UTF-8"?>
<svg id="Ebene_1" data-name="Ebene 1" xmlns="http://www.w3.org/2000/svg" viewBox="0 0 540.06659777 188.28884441">
  <path d="M528.24108916,8.1986169l-375.2567749-.05294132-13.80007935,47.60544205c-1.2191925,3.5606041-6.05430603,3.87478638-7.78117371.55952835l-12.03108978-29.92545128c-.22736359-.29636002-.2532196-.31505203-.5955658-.1345253-.71635437.3777523-2.92160797,3.10996628-3.67865753,2.96419525l-5.90776062-6.31412888,8.70545197-7.83615685c2.22459412-1.51635551,5.58332062-.75442982,6.68693542,1.79991722l10.02901459,25.3302021L146.36724883,1.80586687c.76234436-.79805708,1.55686951-1.69556665,2.75489807-1.80158591l381.92564392-.00428096c1.41766357.00370972,2.67852783.95384643,3.42858887,2.08723084,2.08416748,3.14934278,3.31030273,8.06011844,5.44421387,11.33799052.40673828,1.12673664-.04785156,1.95814896-1.2199707,2.15080833-.89776611.14756584-5.84613037.1229353-6.52252197-.16647911-1.13140869-.48412704-3.13952637-5.90860081-3.93707275-7.21093369h.00006104Z" fill="#f84aa7"/>
  <path d="M212.09965545,32.368637l34.90684509,80.06078339,35.14205933-80.06078339h13.434021v93.96060944h-10.79519653V51.78396598l-32.65074158,74.16053009c-.17044067.3752594-.45445251.35823059-.8006134.39852905-1.73985291.20252991-6.69216919.20852661-8.42385864,0-.26477051-.03188324-.52549744-.00370789-.70904541-.25032806l-32.20605469-74.00247192-.53623962-.30626297v74.54527664h-10.79521179V32.368637h13.43403625Z" fill="#f84aa7"/>
  <path d="M120.93900329,43.15361015c-6.9022522-2.78131104-15.18782043-.68880081-20.51554108,4.31005859-19.77440643,18.55382538-4.07852936,48.69497681,11.03752899,64.72689056,3.3815155,3.58639526,8.71063232,9.42315674,13.77639771,5.60868073,4.20886993-3.16924286,6.14983368-5.01976013,12.06903839-4.34716797,4.31399536.49019623,5.41903687,2.19538116,8.50401306,4.44654083,5.1819458,3.78134918,10.75975037-2.58390045,14.11573792-6.18743896,11.91082764-12.78942108,22.15328979-30.88437653,19.23809814-48.95114517-1.21429443-7.5255928-7.58908081-16.16356277-14.64205933-19.16708374-5.74902344-2.44823074-11.3503418-2.04974365-16.95275879.51945877l3.39176941-11.470047c11.04295349-2.01581192,21.28527832,2.09391785,28.63626099,10.2694931,18.69268799,20.78952789,7.95004272,50.14471436-7.32676697,69.38858795-7.03883362,8.8666687-19.03231812,22.5187912-31.39755249,14.12680817-2.28460693-1.55051422-3.26235962-3.77127838-6.56272888-3.15637207-1.27690125.23789978-2.31013489,1.71048737-3.31486511,2.43906403-12.94526672,9.38722992-24.60149384-3.75206757-32.22198486-13.30659485-11.51750946-14.4405899-20.26166534-33.63603973-16.38098145-52.51432037,2.33573914-11.36261368,11.80625916-22.89468384,23.01164246-26.38461304,3.53048706-1.09957504,7.71878815-1.78316498,11.34500885-1.143013l4.18975067,10.79222488-.00000763-.00001144Z" fill="#f84aa7"/>
  <path d="M486.89764434,127.52772514l-7.34011841-19.39131165-48.08468628-.04171753-7.90707397,19.43302917h-11.39492798l36.934021-93.8503418c.1809082-.13076401.39157104-.09809494.59579468-.12377167,2.17990112-.27405548,9.11514282-.26934433,11.30181885.00020218.26385498.03252792.53329468-.01420593.71038818.24897766l36.45977783,93.72493362h-11.2749939ZM475.26281768,97.08640281l-20.02871704-51.77666092-19.79360962,51.77666092h39.82232666Z" fill="#f84aa7"/>
  <path d="M13.94765025,87.97797385v38.35126495H3.15244394V32.368637c12.57423234.31359482,25.22327161-.41510773,37.79311681-.00988388,15.22711563.49088669,29.82152939,4.22048187,32.42599106,21.53225327,3.18214417,21.15161133-7.79373932,32.99674988-28.60004044,34.08451843,0,0-30.82385826.00244904-30.82386112.00244904ZM13.94765025,78.62985221c9.30626202-.32608032,18.91069126.43764496,28.18502903-.00244904,13.49279404-.64028168,21.67191696-5.90341949,20.76482773-20.50308609-.69010544-11.10731125-8.57770157-15.41950226-18.83321381-16.17786789l-30.116642.01000214s0,36.67340088-.00000095,36.67340088Z" fill="#f84aa7"/>
  <path d="M391.30007964,126.32924644h-11.75479126l-31.54495239-82.21741486-31.30715942,82.21741486h-11.75479126l37.17965698-93.84459686c3.61380005.10544968,8.1151123-.53605461,11.65194702-.12929153.34344482.03949738.63323975.02264023.80593872.39320755l36.72412109,93.58068085h.00003052Z" fill="#f84aa7"/>
  <polygon points="511.36676055 32.368637 521.68219024 32.368637 522.04205352 32.72817985 522.04205352 125.96970359 521.68219024 126.32924644 511.36676055 126.32924644 511.00692779 125.96970359 511.00692779 32.72817985 511.36676055 32.368637" fill="#f84aa7"/>
  <path d="M367.07083159,152.93543998l20.3885498,28.52368164-.23748779-28.52368164h4.5579834v34.39628601l-.35983276.35954285h-4.07818604c-6.9574585-9.52589417-14.14834595-18.90979004-20.63082886-28.7658844l.11993408,28.76586914h-4.19815063l-.35983276-.35954285v-34.39628601h4.79788208l-.00003052.00001526Z" fill="#f84aa7"/>
  <path d="M154.40527373,152.93543998c4.74868774,6.43725586,9.57859802,12.83152771,14.22976685,19.33934021,2.17816162,3.04762268,4.1799469,6.3059082,6.51858521,9.18440247l-.47735596-28.52372742h4.5579834v34.75582886h-4.19813538l-20.74839783-28.52368164.23750305,28.52368164h-4.5579834v-34.75582886h4.43803406v-.00001526Z" fill="#f84aa7"/>
  <path d="M457.0309146,152.93543998l20.27099609,28.52618408-.11993408-28.52618408h4.5579834v34.39628601l-.35983276.35954285h-4.07818604c-6.91217041-9.56028748-14.12982178-18.91999817-20.63082886-28.7658844l.11993408,28.76586914h-4.31808472v-34.75582886h4.5579834l-.00003052.00001526Z" fill="#f84aa7"/>
  <path d="M46.28371459,152.28668205c13.71607208-1.39936829,21.05078888,9.76477051,18.64968109,22.46940613-1.9444046,10.28814697-11.31237411,15.43357849-21.2906723,12.86700439-16.96152878-4.36274719-15.56994438-33.47846985,2.64099503-35.33642578l-.00000381.00001526ZM47.00377685,156.12213126c-14.68330002,1.5791626-14.25028229,26.89181519-.06691742,28.20953369,10.58994293.98387146,15.24378586-7.897995,13.76066971-17.3447113-1.11284256-7.08825684-6.3758316-11.65185547-13.69375229-10.86482239Z" fill="#f84aa7"/>
  <path d="M216.41774016,153.41482536v3.83512878c-7.97665405-2.43357849-18.19485474-1.63981628-22.07316589,6.82835388-1.91946411,4.19110107-1.72235107,10.48388672.62207031,14.48518372,3.62931824,6.19425964,12.00460815,6.44932556,18.33247375,5.29266357v-10.30690002h-8.15637207v-3.83512878h12.71435547v17.01837158c-12.40190125,3.69172668-28.28669739,1.34474182-29.27682495-14.25204468-1.03843689-16.35765076,13.54870605-23.44065857,27.83746338-19.06562805Z" fill="#f84aa7"/>
  <path d="M518.68353301,153.41482536v3.83512878c-7.23754883-2.19622803-16.21414185-1.83277893-20.87683105,4.90765381-2.7862854,4.02790833-3.0916748,10.06980896-1.37594604,14.57025146,2.99377441,7.85282898,12.19512939,8.44987488,19.37405396,7.12828064v-10.30690002h-8.15637207v-3.83512878h12.71435547v16.65882874c-5.08758545,2.16175842-12.23681641,2.46965027-17.56369019,1.01019287-9.1265564-2.50048828-12.91796875-10.63188171-11.63760376-19.64079285,1.93997192-13.65014648,15.52429199-18.02061462,27.52203369-14.32752991v.00001526Z" fill="#f84aa7"/>
  <polygon points="290.06503325 152.93543998 290.06503325 167.79655448 308.77673369 167.79655448 308.77673369 152.93543998 313.09481841 152.93543998 313.09481841 187.69126884 308.77673369 187.69126884 308.77673369 171.87138358 290.06503325 171.87138358 290.06503325 187.69126884 285.50704986 187.69126884 285.50704986 152.93543998 290.06503325 152.93543998" fill="#f84aa7"/>
  <path d="M328.20809966,152.93543998v23.37030029c0,1.68835449,1.49255371,4.71478271,2.75259399,5.87870789,3.34539795,3.09025574,10.90496826,2.97740173,14.05056763-.35510254.99703979-1.05625916,2.38830566-4.11480713,2.38830566-5.52362061v-23.37030029h4.5579834c-.30801392,7.13412476.40838623,14.60566711.00991821,21.70236206-.43258667,7.70458984-3.94192505,13.01278687-12.11312866,13.54428101-9.89916992.64389038-15.60424805-3.09068298-16.2142334-13.30450439-.42745972-7.15759277.33978271-14.74156189.01000977-21.94213867h4.5579834v.00001526Z" fill="#f84aa7"/>
  <path d="M22.34392196,157.96903983c-4.37071037-1.45153809-11.7817421-3.46159363-15.70655441-.23323059-1.94037247,1.59605408-2.57675743,5.02813721-1.0847044,7.06326294,3.5404911,4.8291626,16.98459148,2.31112671,18.16860485,11.08921814,1.7993145,13.33984375-14.97375011,14.38868713-23.68743896,10.24494934v-3.71528625c4.55745935,1.70140076,11.5335083,3.11404419,16.04561043.81170654,3.61235237-1.84324646,4.35679626-7.06182861.82683182-9.40072632-5.20460892-3.44848633-16.32168388-1.32910156-16.88223457-10.69567871-.70752829-11.82252502,14.37834454-12.85014343,22.31988525-8.8795166v3.71530151Z" fill="#f84aa7"/>
  <polygon points="406.89315825 152.93543998 406.89315825 169.71411124 423.32586699 152.93543998 427.52398711 152.93543998 410.9757083 170.07365409 428.72348052 187.69126884 424.2854312 187.69126884 406.89315825 170.91259757 406.89315825 187.33172599 406.53332549 187.69126884 402.33517486 187.69126884 402.33517486 152.93543998 406.89315825 152.93543998" fill="#f84aa7"/>
  <polygon points="100.66914397 152.93543998 111.94413787 181.94100944 122.85929137 152.93543998 127.41726714 152.93543998 113.9559558 187.66258231 110.25138884 187.70678703 96.4710086 152.93543998 100.66914397 152.93543998" fill="#f84aa7"/>
  <path d="M276.39111358,153.41482536v3.83512878c-11.54928589-3.78186035-22.57754517,1.24212646-21.84024048,14.5112915.69015503,12.42059326,11.99380493,14.17124939,22.08013916,11.61550903v3.47558594c-5.68084717,2.28656006-13.96188354,1.85206604-19.26403809-1.36567688-6.82667542-4.14294434-8.44567871-13.2714386-6.52697754-20.56890869,2.99357605-11.38560486,15.19146729-14.94502258,25.55111694-11.50292969Z" fill="#f84aa7"/>
  <polygon points="79.43856841 152.93543998 79.43856841 183.61645499 96.9507907 183.61645499 96.9507907 187.69126884 74.88059264 187.69126884 74.88059264 152.93543998 79.43856841 152.93543998" fill="#f84aa7"/>
  <polygon points="139.41194182 152.93543998 139.41194182 187.33172599 139.0520938 187.69126884 134.85395842 187.69126884 134.85395842 152.93543998 139.41194182 152.93543998" fill="#f84aa7"/>
  <polygon points="441.67770415 152.93543998 441.67770415 187.69126884 437.47958404 187.69126884 437.11975127 187.33172599 437.11975127 152.93543998 441.67770415 152.93543998" fill="#f84aa7"/>
  <rect x="529.95849639" y="181.93858329" width="5.03778076" height="5.27330017" fill="#f84aa7"/>
</svg>